<?xml version="1.0" standalone="no"?>
<!DOCTYPE svg PUBLIC "-//W3C//DTD SVG 20010904//EN"
 "http://www.w3.org/TR/2001/REC-SVG-20010904/DTD/svg10.dtd">
<svg version="1.0" xmlns="http://www.w3.org/2000/svg"
 width="1220.000000pt" height="426.000000pt" viewBox="0 0 1220.000000 426.000000"
 preserveAspectRatio="xMidYMid meet">

<g transform="translate(0.000000,426.000000) scale(0.100000,-0.100000)"
fill="#000000" stroke="none">
<path d="M3220 2250 l0 -1400 35 0 35 0 0 1400 0 1400 -35 0 -35 0 0 -1400z"/>
<path d="M6987 3013 c-4 -3 -7 -294 -7 -645 l0 -638 65 0 65 0 0 185 c0 102 4
185 9 185 5 0 77 -83 160 -185 l152 -185 80 0 81 0 -65 78 c-35 42 -116 142
-181 221 l-116 143 112 107 c62 59 136 128 163 154 l50 47 -80 0 -80 0 -132
-125 c-72 -69 -136 -125 -142 -125 -8 0 -11 117 -11 395 l0 395 -58 0 c-32 0
-62 -3 -65 -7z"/>
<path d="M1259 2891 c-40 -39 -41 -43 -37 -91 6 -56 27 -86 76 -107 44 -19 96
-8 132 28 76 77 31 196 -80 207 -48 4 -52 3 -91 -37z m127 -36 c32 -32 29 -71
-8 -98 -23 -17 -33 -19 -55 -11 -50 17 -57 99 -11 122 35 16 47 14 74 -13z"/>
<path d="M4529 2488 c-90 -243 -168 -443 -172 -443 -5 0 -77 188 -160 418
l-151 417 -73 0 c-42 0 -73 -4 -73 -10 0 -24 444 -1190 450 -1183 4 4 78 193
165 418 87 226 164 421 171 435 l12 25 10 -25 c6 -14 81 -207 167 -430 86
-223 161 -412 165 -420 7 -12 10 -10 18 10 5 14 94 250 197 525 103 275 200
535 216 578 l28 77 -77 0 -77 0 -150 -425 c-82 -233 -152 -421 -156 -417 -3 4
-79 201 -168 437 -90 237 -166 436 -170 443 -4 7 -78 -179 -172 -430z"/>
<path d="M8229 2488 c-90 -243 -168 -443 -173 -443 -4 0 -76 188 -159 418
l-151 417 -77 0 -77 0 226 -600 c123 -330 227 -598 231 -595 3 3 80 200 172
436 91 237 169 431 174 432 7 2 92 -211 310 -777 25 -64 41 -93 46 -85 4 8
102 266 217 574 116 308 215 573 221 588 l11 28 -77 -3 -78 -3 -146 -413 c-81
-227 -150 -416 -153 -419 -3 -4 -8 -4 -10 -2 -2 2 -76 198 -166 434 -89 237
-165 436 -169 443 -4 7 -80 -185 -172 -430z"/>
<path d="M9381 2864 c-62 -52 -26 -144 57 -144 51 0 82 32 82 84 0 77 -78 111
-139 60z"/>
<path d="M1670 2840 l0 -30 405 0 405 0 0 -140 c0 -77 -3 -140 -7 -140 -4 0
-23 16 -43 35 -36 35 -37 35 -54 16 -17 -18 -15 -22 50 -90 36 -39 72 -71 78
-71 6 0 43 31 81 70 68 69 69 70 50 90 l-19 21 -38 -38 -38 -37 -2 170 -3 169
-432 3 -433 2 0 -30z"/>
<path d="M1157 2572 l-37 -38 0 -152 0 -152 220 0 220 0 0 153 0 153 -38 37
-38 37 -145 0 -145 0 -37 -38z m326 -40 c26 -27 27 -33 27 -135 l0 -107 -165
0 -165 0 0 110 c0 106 1 110 27 135 26 24 34 25 139 25 108 0 111 -1 137 -28z"/>
<path d="M5767 2490 c-116 -20 -235 -111 -285 -218 -23 -50 -26 -70 -27 -167
0 -99 3 -116 27 -168 69 -147 195 -227 358 -227 138 0 256 61 329 171 49 73
65 141 59 252 -4 70 -10 97 -36 150 -55 111 -159 186 -289 207 -65 11 -68 11
-136 0z m191 -139 c90 -47 142 -136 141 -246 0 -118 -40 -192 -132 -245 -44
-25 -63 -30 -120 -30 -115 0 -187 43 -236 141 -36 73 -41 155 -14 234 22 66
95 139 159 159 61 20 150 14 202 -13z"/>
<path d="M6666 2486 c-21 -8 -56 -32 -77 -52 l-39 -38 0 42 0 42 -65 0 -65 0
0 -380 0 -380 64 0 65 0 3 278 c3 234 6 282 19 307 38 69 99 89 171 57 l44
-19 32 49 c35 53 35 61 -6 82 -44 22 -103 27 -146 12z"/>
<path d="M9902 2485 c-61 -19 -118 -61 -136 -100 -36 -76 -12 -182 54 -233 31
-24 128 -73 194 -98 27 -10 67 -34 88 -54 32 -31 38 -44 38 -77 0 -31 -7 -46
-31 -69 -27 -26 -37 -29 -92 -29 -74 1 -110 18 -169 80 l-43 44 -47 -30 -48
-31 18 -30 c46 -80 151 -139 257 -146 168 -11 284 82 285 226 0 100 -46 148
-226 233 -157 74 -198 120 -159 176 44 63 170 46 255 -33 l25 -23 48 29 c26
17 47 34 47 38 0 12 -81 88 -110 102 -73 38 -174 48 -248 25z"/>
<path d="M10689 2490 c-116 -20 -216 -97 -265 -203 -27 -58 -29 -70 -29 -187
0 -114 2 -130 27 -182 35 -76 98 -142 167 -175 51 -25 66 -28 167 -28 107 0
112 1 186 38 73 36 158 112 158 141 0 6 -21 23 -46 39 l-46 28 -42 -45 c-57
-62 -113 -86 -202 -86 -99 0 -166 34 -206 107 -18 31 -30 69 -31 95 l-2 43
299 3 299 2 -6 82 c-7 102 -56 209 -117 258 -73 58 -209 88 -311 70z m183
-131 c20 -10 48 -33 61 -51 28 -38 51 -103 42 -118 -4 -6 -88 -10 -227 -10
l-221 0 6 36 c12 72 83 145 161 165 44 11 135 0 178 -22z"/>
<path d="M9370 2105 l0 -375 65 0 65 0 0 375 0 375 -65 0 -65 0 0 -375z"/>
<path d="M1750 2375 c0 -20 5 -25 25 -25 20 0 25 5 25 25 0 20 -5 25 -25 25
-20 0 -25 -5 -25 -25z"/>
<path d="M1840 2375 l0 -25 130 0 130 0 0 25 0 25 -130 0 -130 0 0 -25z"/>
<path d="M1750 2260 c0 -25 4 -30 25 -30 21 0 25 5 25 30 0 25 -4 30 -25 30
-21 0 -25 -5 -25 -30z"/>
<path d="M1840 2260 l0 -30 130 0 130 0 0 30 0 30 -130 0 -130 0 0 -30z"/>
<path d="M2473 2283 c-13 -2 -36 -18 -52 -34 -78 -78 -34 -196 77 -207 44 -4
52 -1 85 28 99 86 20 239 -110 213z m79 -70 c22 -20 24 -76 3 -97 -42 -42
-107 -18 -113 42 -6 59 66 95 110 55z"/>
<path d="M1750 2145 c0 -20 5 -25 25 -25 20 0 25 5 25 25 0 20 -5 25 -25 25
-20 0 -25 -5 -25 -25z"/>
<path d="M1840 2145 l0 -25 130 0 130 0 0 25 0 25 -130 0 -130 0 0 -25z"/>
<path d="M1265 2030 c-68 -69 -69 -70 -50 -90 l19 -21 38 38 38 37 2 -170 3
-169 433 -3 432 -2 0 30 0 30 -405 0 -405 0 0 140 c0 131 1 140 18 131 9 -5
28 -21 41 -35 23 -25 25 -25 43 -9 18 16 16 20 -54 90 -40 40 -75 73 -78 73
-3 0 -37 -31 -75 -70z"/>
<path d="M2322 1917 l-42 -43 0 -142 0 -142 225 0 225 0 0 145 0 145 -36 40
-36 40 -147 0 -147 0 -42 -43z m325 -29 c21 -20 23 -29 23 -135 l0 -113 -162
2 -163 3 -3 108 c-3 103 -2 108 22 132 24 24 31 25 142 25 107 0 120 -2 141
-22z"/>
</g>
</svg>
